{"title":"The Man without a Face (1993) BDRip-AVC Eng / Rus","uid":9447194,"size":3120544840,"categoryP":"video","categoryS":"movies","magnet":"?xt=urn:btih:a1bb0c6b794517e47a202e8a2b05e8934dd3b8d5&amp;dn=The+Man+without+a+Face+%281993%29+BDRip-AVC+Eng+%2F+Rus&amp;tr=udp%3A%2F%2Ftracker.openbittorrent.com%3A80&amp;tr=udp%3A%2F%2Fopen.demonii.com%3A1337&amp;tr=udp%3A%2F%2Ftracker.coppersurfer.tk%3A6969&amp;tr=udp%3A%2F%2Fexodus.desync.com%3A6969","seeders":1,"leechers":1,"uploader":"yfjfrj","files":3,"time":1389112735,"description":"Plot:\nChuck wants to leave home but can't make the grade for boarding school. Then he finds out the disfigured recluse living nearby is an ex-teacher.\n\nMI:\nGeneral\nUnique ID                                : 174222953801996852385885500059797821230 (0x83121ED0BE8D992588C6500116BA172E)\nComplete name                            : D:moviesThe_man_without_a_face_1993_BDRip-AVCThe_man_without_a_face_1993_BDRip-AVC.mkv\nFormat                                   : Matroska\nFormat version                           : Version 4 / Version 2\nFile size                                : 2.91 GiB\nDuration                                 : 1h 54mn\nOverall bit rate                         : 3 627 Kbps\nEncoded date                             : UTC 2014-01-06 09:53:08\nWriting application                      : mkvmerge v6.6.0 ('The Edge Of The In Between') built on Dec  1 2013 17:55:00\nWriting library                          : libebml v1.3.0 + libmatroska v1.4.1\n\nVideo\nID                                       : 1\nFormat                                   : AVC\nFormat/Info                              : Advanced Video Codec\nFormat profile                           : &lt;a class=&quot;__cf_email__&quot; href=&quot;/cdn-cgi/l/email-protection&quot; data-cfemail=&quot;2860414f4068641d0618&quot;&gt;[email&amp;#160;protected]&lt;/a&gt;&lt;script cf-hash='f9e31' type=&quot;text/javascript&quot;&gt;\n/* &lt;![CDATA[ */!function(){try{var t=&quot;currentScript&quot;in document?document.currentScript:function(){for(var t=document.getElementsByTagName(&quot;script&quot;),e=t.length;e--;)if(t[e].getAttribute(&quot;cf-hash&quot;))return t[e]}();if(t&amp;&amp;t.previousSibling){var e,r,n,i,c=t.previousSibling,a=c.getAttribute(&quot;data-cfemail&quot;);if(a){for(e=&quot;&quot;,r=parseInt(a.substr(0,2),16),n=2;a.length-n;n+=2)i=parseInt(a.substr(n,2),16)^r,e+=String.fromCharCode(i);e=document.createTextNode(e),c.parentNode.replaceChild(e,c)}}}catch(u){}}();/* ]]&gt; */&lt;/script&gt;\nFormat settings, CABAC                   : Yes\nFormat settings, ReFrames                : 16 frames\nCodec ID                                 : V_MPEG4/ISO/AVC\nDuration                                 : 1h 54mn\nBit rate                                 : 2 666 Kbps\nWidth                                    : 1 136 pixels\nHeight                                   : 640 pixels\nDisplay aspect ratio                     : 16:9\nFrame rate mode                          : Constant\nFrame rate                               : 24.000 fps\nColor space                              : YUV\nChroma subsampling                       : 4:2:0\nBit depth                                : 8 bits\nScan type                                : Progressive\nBits/(Pixel*Frame)                       : 0.153\nStream size                              : 2.08 GiB (72%)\nWriting library                          : x264 core 138 r2358 9e941d1\nEncoding settings                        : cabac=1 / ref=16 / deblock=1:-1:-1 / analyse=0x3:0x133 / me=umh / subme=10 / psy=1 / psy_rd=1.00:0.15 / mixed_ref=1 / me_range=24 / chroma_me=1 / trellis=2 / 8x8dct=1 / cqm=0 / deadzone=21,11 / fast_pskip=1 / chroma_qp_offset=-3 / threads=3 / lookahead_threads=1 / sliced_threads=0 / nr=0 / decimate=1 / interlaced=0 / bluray_compat=0 / constrained_intra=0 / bframes=8 / b_pyramid=2 / b_adapt=2 / b_bias=0 / direct=3 / weightb=1 / open_gop=0 / weightp=2 / keyint=240 / keyint_min=24 / scenecut=40 / intra_refresh=0 / rc_lookahead=60 / rc=2pass / mbtree=1 / bitrate=2666 / ratetol=1.0 / qcomp=0.60 / qpmin=0 / qpmax=69 / qpstep=4 / cplxblur=20.0 / qblur=0.5 / ip_ratio=1.40 / aq=1:1.00\nLanguage                                 : English\nDefault                                  : Yes\nForced                                   : No\n\nAudio #1\nID                                       : 2\nFormat                                   : AC-3\nFormat/Info                              : Audio Coding 3\nMode extension                           : CM (complete main)\nFormat settings, Endianness              : Big\nCodec ID                                 : A_AC3\nDuration                                 : 1h 54mn\nBit rate mode                            : Constant\nBit rate                                 : 384 Kbps\nChannel count                            : 6 channels\nChannel positions                        : Front: L C R, Side: L R, LFE\nSampling rate                            : 48.0 KHz\nBit depth                                : 16 bits\nCompression mode                         : Lossy\nStream size                              : 315 MiB (11%)\nTitle                                    : Russian_MVO\nLanguage                                 : Russian\nDefault                                  : Yes\nForced                                   : Yes\n\nAudio #2\nID                                       : 3\nFormat                                   : AC-3\nFormat/Info                              : Audio Coding 3\nMode extension                           : CM (complete main)\nFormat settings, Endianness              : Big\nCodec ID                                 : A_AC3\nDuration                                 : 1h 54mn\nBit rate mode                            : Constant\nBit rate                                 : 384 Kbps\nChannel count                            : 6 channels\nChannel positions                        : Front: L C R, Side: L R, LFE\nSampling rate                            : 48.0 KHz\nBit depth                                : 16 bits\nCompression mode                         : Lossy\nStream size                              : 315 MiB (11%)\nTitle                                    : English\nLanguage                                 : English\nDefault                                  : No\nForced                                   : No\n\nAudio #3\nID                                       : 4\nFormat                                   : AC-3\nFormat/Info                              : Audio Coding 3\nMode extension                           : CM (complete main)\nFormat settings, Endianness              : Big\nCodec ID                                 : A_AC3\nDuration                                 : 1h 54mn\nBit rate mode                            : Constant\nBit rate                                 : 192 Kbps\nChannel count                            : 2 channels\nChannel positions                        : Front: L R\nSampling rate                            : 48.0 KHz\nBit depth                                : 16 bits\nCompression mode                         : Lossy\nStream size                              : 158 MiB (5%)\nTitle                                    : Russian_AVO\nLanguage                                 : Russian\nDefault                                  : No\nForced                                   : No\n\nScreenshots: &lt;a href=&quot;\nhttp://i5.imageban.ru/out/2014/01/06/9e37bdf27af754ad49b57bcb8ea846e3.png&quot; rel=&quot;nofollow&quot; target=&quot;_NEW&quot;&gt;\nhttp://i5.imageban.ru/out/2014/01/06/9e37bdf27af754ad49b57bcb8ea846e3.png&lt;/a&gt; &lt;a href=&quot;\nhttp://i5.imageban.ru/out/2014/01/06/33899ff80f459d1f15dd337a98fe4abe.png&quot; rel=&quot;nofollow&quot; target=&quot;_NEW&quot;&gt;\nhttp://i5.imageban.ru/out/2014/01/06/33899ff80f459d1f15dd337a98fe4abe.png&lt;/a&gt; &lt;a href=&quot;\nhttp://i6.imageban.ru/out/2014/01/06/2cc318c159a5de314cc49d21cb9731a5.png&quot; rel=&quot;nofollow&quot; target=&quot;_NEW&quot;&gt;\nhttp://i6.imageban.ru/out/2014/01/06/2cc318c159a5de314cc49d21cb9731a5.png&lt;/a&gt; &lt;a href=&quot;\nhttp://i2.imageban.ru/out/2014/01/06/c5acd064bd5d65f16fd0dd12f48a62e6.png&quot; rel=&quot;nofollow&quot; target=&quot;_NEW&quot;&gt;\nhttp://i2.imageban.ru/out/2014/01/06/c5acd064bd5d65f16fd0dd12f48a62e6.png&lt;/a&gt;","torrent":{"xt":"urn:btih:a1bb0c6b794517e47a202e8a2b05e8934dd3b8d5","amp;dn":"The+Man+without+a+Face+%281993%29+BDRip-AVC+Eng+%2F+Rus","amp;tr":["udp%3A%2F%2Ftracker.openbittorrent.com%3A80","udp%3A%2F%2Fopen.demonii.com%3A1337","udp%3A%2F%2Ftracker.coppersurfer.tk%3A6969","udp%3A%2F%2Fexodus.desync.com%3A6969"],"infoHash":"a1bb0c6b794517e47a202e8a2b05e8934dd3b8d5","infoHashBuffer":{"type":"Buffer","data":[161,187,12,107,121,69,23,228,122,32,46,138,43,5,232,147,77,211,184,213]},"announce":[],"urlList":[]}}